<?xml version="1.0" standalone="no"?>
<!DOCTYPE svg PUBLIC "-//W3C//DTD SVG 20010904//EN"
 "http://www.w3.org/TR/2001/REC-SVG-20010904/DTD/svg10.dtd">
<svg version="1.0" xmlns="http://www.w3.org/2000/svg"
 width="494.000000pt" height="494.000000pt" viewBox="0 0 494.000000 494.000000"
 preserveAspectRatio="xMidYMid meet">

<g transform="translate(0.000000,494.000000) scale(0.100000,-0.100000)"
fill="#FFFFFF" stroke="none">
<path d="M2703 4893 c-24 -2 -43 -8 -43 -14 0 -5 -11 -9 -24 -9 -13 0 -26 -3
-28 -7 -4 -10 -63 -43 -77 -43 -9 0 -35 -21 -110 -90 -44 -41 -121 -165 -121
-195 0 -8 -4 -15 -10 -15 -5 0 -10 -18 -10 -39 0 -22 -4 -43 -10 -46 -5 -3
-10 -46 -10 -95 0 -49 5 -92 10 -95 6 -3 10 -19 10 -36 0 -25 48 -136 83 -193
16 -25 103 -116 111 -116 4 0 16 -8 27 -19 11 -10 37 -27 59 -37 22 -10 40
-22 40 -26 0 -5 13 -8 29 -8 16 0 31 -6 34 -12 3 -10 43 -13 155 -13 107 0
155 4 164 13 6 6 22 12 35 12 13 0 23 3 23 8 0 4 15 13 33 21 72 32 224 174
235 222 2 7 9 17 15 21 7 4 8 8 4 8 -5 0 -1 10 7 21 8 12 12 28 9 35 -3 8 0
14 6 14 6 0 11 15 11 34 0 19 5 38 10 41 6 3 10 48 10 100 0 52 -4 97 -10 100
-5 3 -10 19 -10 36 0 16 -4 37 -9 47 -5 9 -22 44 -37 77 -16 33 -32 62 -36 63
-5 2 -8 8 -8 14 0 9 -47 57 -105 107 -16 13 -66 43 -113 67 -83 43 -88 44
-196 48 -61 2 -130 2 -153 -1z"/>
<path d="M1868 4313 c-16 -2 -28 -9 -28 -14 0 -5 -9 -9 -20 -9 -11 0 -28 -4
-38 -9 -9 -5 -39 -17 -67 -26 -27 -9 -73 -28 -101 -41 -28 -13 -56 -24 -62
-24 -7 0 -12 -4 -12 -10 0 -5 -9 -10 -19 -10 -11 0 -21 -4 -23 -8 -1 -4 -29
-21 -60 -36 -32 -16 -66 -37 -76 -46 -10 -10 -28 -20 -39 -24 -10 -3 -28 -14
-39 -24 -10 -9 -31 -23 -45 -30 -14 -8 -45 -31 -68 -52 -23 -21 -58 -51 -78
-67 -62 -49 -78 -65 -76 -74 2 -5 -1 -9 -6 -9 -12 0 -109 -93 -157 -151 -71
-84 -124 -155 -124 -164 0 -3 -8 -15 -18 -26 -11 -10 -25 -32 -33 -47 -8 -15
-17 -29 -20 -32 -37 -29 -219 -421 -219 -472 0 -9 -5 -20 -10 -23 -6 -3 -10
-17 -10 -30 0 -13 -4 -26 -9 -29 -5 -3 -11 -20 -14 -38 -3 -18 -11 -55 -17
-83 -40 -181 -55 -314 -55 -485 0 -225 24 -399 82 -600 52 -181 129 -364 207
-494 20 -32 36 -60 36 -63 0 -5 85 -126 114 -164 12 -14 32 -41 46 -60 24 -32
88 -105 138 -157 l24 -25 79 79 c43 43 78 82 77 86 -2 3 -23 28 -48 55 -378
400 -575 964 -525 1498 8 83 20 175 25 205 6 30 14 72 17 93 3 20 9 40 14 43
5 3 9 18 9 34 0 16 4 32 10 35 5 3 10 17 10 30 0 13 5 27 10 30 6 3 10 15 10
26 0 10 4 27 9 37 5 9 13 28 19 42 47 118 183 368 225 412 7 7 25 31 41 53 48
65 128 155 180 204 27 25 59 55 70 66 51 49 146 125 196 158 30 20 64 45 75
55 11 10 25 19 30 20 30 7 45 14 45 23 0 5 9 9 19 9 11 0 21 3 23 8 2 4 30 20
63 35 33 16 68 33 77 38 10 5 25 9 33 9 8 0 15 3 15 8 0 4 28 15 63 26 34 10
70 22 79 27 10 5 25 9 33 9 8 0 15 9 15 20 0 11 -4 20 -10 20 -5 0 -10 15 -10
34 0 19 -4 38 -10 41 -5 3 -10 14 -10 24 0 19 -22 72 -30 69 -3 0 -17 -3 -32
-5z"/>
<path d="M3690 4025 c0 -8 -3 -15 -8 -15 -4 0 -14 -15 -21 -32 -8 -18 -20 -38
-25 -44 -22 -23 -46 -54 -46 -59 0 -2 13 -11 30 -20 16 -8 40 -26 54 -40 14
-14 28 -25 31 -25 4 0 12 -6 20 -12 7 -7 28 -24 46 -38 28 -22 83 -71 154
-139 11 -11 37 -39 57 -63 20 -23 53 -62 72 -84 20 -23 36 -46 36 -51 0 -4 9
-15 20 -23 11 -8 20 -20 20 -27 0 -7 5 -13 10 -13 6 0 10 -7 10 -16 0 -9 8
-24 18 -33 10 -9 25 -31 33 -48 7 -18 17 -33 21 -33 5 0 8 -7 8 -15 0 -8 5
-15 10 -15 6 0 10 -9 10 -20 0 -11 5 -20 10 -20 6 0 10 -6 10 -13 0 -8 11 -36
25 -63 14 -27 25 -54 25 -60 0 -24 29 -32 138 -36 127 -5 119 -13 86 77 -11
28 -21 52 -24 55 -6 6 -23 41 -42 88 -7 17 -16 32 -20 32 -5 0 -8 9 -8 20 0
11 -4 20 -8 20 -5 0 -14 16 -22 35 -8 19 -17 35 -22 35 -4 0 -8 7 -8 15 0 8
-4 15 -10 15 -5 0 -10 9 -10 21 0 11 -4 17 -10 14 -5 -3 -10 3 -10 15 0 12 -4
18 -10 15 -5 -3 -10 1 -10 9 0 9 -4 16 -8 16 -4 0 -16 15 -26 33 -21 35 -97
130 -108 135 -5 2 -8 10 -8 17 0 7 -7 16 -16 19 -9 3 -12 11 -8 18 4 7 4 10 0
6 -4 -3 -43 29 -87 72 -44 43 -107 102 -141 132 -34 29 -66 58 -72 63 -6 6
-27 21 -46 32 -20 12 -47 31 -59 43 -28 24 -61 26 -61 5z"/>
<path d="M2385 3460 c-16 -4 -51 -8 -77 -9 -26 0 -50 -5 -53 -11 -3 -5 -17
-10 -31 -10 -29 0 -124 -29 -139 -41 -5 -5 -16 -9 -23 -9 -25 0 -162 -70 -249
-126 -85 -55 -293 -253 -293 -279 0 -7 -4 -15 -8 -17 -22 -9 -142 -216 -142
-246 0 -11 34 -29 148 -78 47 -20 50 -19 74 34 82 177 276 376 455 466 29 14
59 26 68 26 8 0 15 4 15 9 0 5 10 11 23 14 12 3 49 13 82 22 190 53 395 53
565 0 30 -9 70 -19 88 -22 28 -4 32 -2 32 16 0 12 5 21 10 21 6 0 10 6 10 13
0 7 9 32 20 55 11 22 20 48 20 56 0 8 6 16 13 19 30 11 -165 71 -288 89 -93
13 -282 18 -320 8z"/>
<path d="M3134 3271 c-46 -21 -84 -76 -84 -121 0 -49 39 -107 87 -130 47 -22
78 -26 88 -10 3 6 13 10 21 10 18 0 64 40 64 57 0 7 5 13 10 13 6 0 10 25 10
55 0 30 -4 55 -10 55 -5 0 -10 6 -10 13 0 27 -77 77 -118 77 -9 0 -35 -9 -58
-19z"/>
<path d="M1315 2491 c-57 -15 -111 -50 -136 -88 -63 -95 -63 -165 -1 -266 57
-91 197 -121 295 -64 52 30 88 80 108 146 20 67 -15 173 -71 218 -53 43 -142
67 -195 54z"/>
<path d="M1428 1908 c-54 -15 -102 -29 -107 -32 -5 -3 2 -36 15 -73 105 -294
334 -557 604 -692 116 -59 209 -90 355 -123 80 -17 360 -17 445 1 101 21 231
63 237 77 2 7 -5 31 -16 55 -12 23 -21 46 -21 51 0 5 -9 28 -21 53 -19 41 -22
43 -47 34 -202 -77 -473 -80 -683 -8 -210 72 -387 206 -522 394 -33 47 -99
177 -129 255 l-13 36 -97 -28z"/>
<path d="M3091 1379 c-41 -25 -61 -58 -61 -101 0 -29 8 -45 38 -78 33 -34 45
-40 78 -40 48 1 79 17 105 56 24 37 24 80 -1 121 -34 57 -104 76 -159 42z"/>
<path d="M4244 1283 c-10 -21 -30 -57 -46 -80 -15 -23 -28 -46 -28 -51 0 -6
-4 -12 -8 -14 -5 -1 -23 -25 -42 -53 -82 -122 -233 -283 -370 -395 -206 -169
-489 -309 -765 -378 -125 -32 -180 -40 -327 -53 -277 -23 -584 24 -862 131
-55 22 -101 38 -102 37 -12 -14 -84 -184 -82 -194 4 -17 111 -63 238 -103 247
-76 420 -102 665 -102 351 0 662 73 985 231 266 130 523 337 715 576 108 135
167 225 258 397 42 80 51 73 -110 82 l-102 6 -17 -37z"/>
<path d="M1237 726 c-54 -20 -103 -64 -136 -126 -19 -35 -18 -156 2 -201 19
-43 83 -103 133 -124 50 -21 133 -19 186 4 80 34 148 135 148 220 0 91 -84
207 -166 230 -52 15 -121 13 -167 -3z"/>
</g>
</svg>
